<svg xmlns="http://www.w3.org/2000/svg" xmlns:svg="http://www.w3.org/2000/svg" id="svg2" width="1600" height="400" version="1.0"><metadata id="metadata7"/><g id="layer1"><text id="text2840" x="13.725" y="427.451" fill="#000" fill-opacity="1" stroke="none" font-family="Sans" font-size="11" font-stretch="normal" font-style="normal" font-variant="normal" font-weight="normal" text-anchor="start" writing-mode="lr-tb" xml:space="preserve" style="text-align:start;line-height:125%;-inkscape-font-specification:Sans"><tspan id="tspan2842" x="13.725" y="427.451">NOTE: Letters have a slope of 77 degrees.</tspan></text></g><g id="layer2" display="inline" transform="translate(-1.845606,-221.31978)"><path id="path3193" fill="#fc390e" fill-opacity="1" fill-rule="evenodd" stroke="#000" stroke-dasharray="none" stroke-linecap="butt" stroke-linejoin="round" stroke-miterlimit="4" stroke-opacity="1" stroke-width="25" d="m 662.31263,304.59386 -8.125,35.15625 -29.59375,0 -7.3125,31.75 29.59375,0 -17.5,75.71875 c -4.52246,19.58897 -0.94201,54.25 39.96875,54.25 l 98.78125,0 8,-34.65625 c -68.56725,10e-6 -68.57553,-0.005 -63.5625,-21.71875 l 17,-73.59375 62.4375,0 6.125,0 23.46875,0 -17.5,75.71875 c -4.52247,19.58896 -0.94201,54.25 39.96875,54.25 l 98.78125,0 8,-34.65625 c -68.56726,0 -68.57553,-0.005 -63.5625,-21.71875 l 17,-73.59375 68.5625,0 7.34375,-31.75 -68.59375,0 8.125,-35.15625 -82.6875,0 -8.125,35.15625 -23.4375,0 -6.15625,0 -62.4375,0 8.125,-35.15625 -82.6875,0 z m -362.25305,35.14506 -40.49676,175.41075 c -2.40652,7.05911 -6.07232,6.68223 -14.25447,7.0031 l -0.96261,39.94815 67.38242,-0.24066 c 13.0754,-0.72195 21.22428,-8.13437 26.59883,-26.42388 l 45.18031,-195.69746 -83.44772,0 z m 13.66746,-59.20028 -10.33393,44.76119 83.44772,0 10.33393,-44.76119 -83.44772,0 z m 119.30434,59.21147 c -14.43908,10e-6 -31.02583,12.29914 -34.65625,31.75 l -16,65.46875 c -9.36476,40.56325 -4.42784,64.5 25.84375,64.5 l 170.84375,0 8,-34.65625 -128.03125,0 6.875,-29.84375 128.03125,0 c 2.0536,-8.89514 10.60295,-21.8218 15.125,-65.46875 1.2802,-5.54511 -7.56248,-31.75 -40.8125,-31.75 l -135.21875,0 z m 68.6875,31.75 c 17.76973,0 22.93383,5.55778 17.21875,30.3125 l -44.90625,0 c 5.51463,-23.88651 13.16102,-30.31251 27.6875,-30.3125 z m 491.23103,-31.76119 -29.33503,127.064 c 0,0 -8.00046,34.65381 40.72232,34.65381 l 82.7473,0 c -4.1302,17.88982 -6.1115,26.47167 -54.2049,26.47167 l -83.37665,0 -7.44487,32.2473 131.47002,0 c 60.6282,0 82.4158,0 89.8607,-32.2473 l 43.447,-188.18948 -82.4158,0 -29.335,127.064 -48.0935,0 29.335,-127.064 -83.37659,0 z m 246.24679,0 -14.3342,62.08809 83.7467,0 14.3342,-62.08809 -83.7467,0 z m -23.0013,99.62972 -14.3342,62.08809 83.7466,0 14.3342,-62.08809 -83.7466,0 z m 195.0806,-158.83 -115.3597,247.38976 42.1718,0 115.3597,-247.38976 -42.1718,0 z m 93.3728,0 -115.3597,247.38976 42.1718,0 115.3597,-247.38976 -42.1718,0 z" display="inline"/><path id="path3690" fill="#fc390e" fill-opacity="1" fill-rule="evenodd" stroke="#000" stroke-dasharray="none" stroke-linejoin="round" stroke-miterlimit="4" stroke-opacity="1" stroke-width="25" d="m 202.02971,401.83649 -8.09375,35.0625 45.5625,0 8.09375,-35.0625 -45.5625,0 z" display="inline"/><path id="path3693" fill="#fc390e" fill-opacity="1" fill-rule="evenodd" stroke="#000" stroke-dasharray="none" stroke-linejoin="round" stroke-miterlimit="4.1" stroke-opacity="1" stroke-width="25" d="m 108.55816,280.40495 -10.312495,44.78125 83.437495,0 10.34375,-44.78125 -83.46875,0 z m -13.656245,59.21875 -38.031253,161.8125 84.124998,0 37.34375,-161.8125 -83.437494,0 z" display="inline"/><path id="path3316" fill="#fc390e" fill-opacity="1" fill-rule="evenodd" stroke="none" d="m 662.31263,304.59386 -8.125,35.15625 -29.59375,0 -7.3125,31.75 29.59375,0 -17.5,75.71875 c -4.52246,19.58897 -0.94201,54.25 39.96875,54.25 l 98.78125,0 8,-34.65625 c -68.56725,10e-6 -68.57553,-0.005 -63.5625,-21.71875 l 17,-73.59375 62.4375,0 6.125,0 23.46875,0 -17.5,75.71875 c -4.52247,19.58896 -0.94201,54.25 39.96875,54.25 l 98.78125,0 8,-34.65625 c -68.56726,0 -68.57553,-0.005 -63.5625,-21.71875 l 17,-73.59375 68.5625,0 7.34375,-31.75 -68.59375,0 8.125,-35.15625 -82.6875,0 -8.125,35.15625 -23.4375,0 -6.15625,0 -62.4375,0 8.125,-35.15625 -82.6875,0 z m -362.25305,35.14506 -40.49677,175.41075 c -2.40651,7.05911 -6.07232,6.68223 -14.25447,7.0031 l -0.9626,39.94815 67.38242,-0.24066 c 13.0754,-0.72195 21.22428,-8.13437 26.59883,-26.42388 l 45.18031,-195.69746 -83.44772,0 z m 13.66746,-59.20028 -10.33393,44.76119 83.44772,0 10.33393,-44.76119 -83.44772,0 z m 119.30434,59.21147 c -14.43908,10e-6 -31.02583,12.29914 -34.65625,31.75 l -16,65.46875 c -9.36476,40.56325 -4.42784,64.5 25.84375,64.5 l 170.84375,0 8,-34.65625 -128.03125,0 6.875,-29.84375 128.03125,0 c 2.0536,-8.89514 10.60295,-21.8218 15.125,-65.46875 1.2802,-5.54511 -7.56248,-31.75 -40.8125,-31.75 l -135.21875,0 z m 68.6875,31.75 c 17.76973,0 22.93383,5.55778 17.21875,30.3125 l -44.90625,0 c 5.51463,-23.88651 13.16102,-30.31251 27.6875,-30.3125 z m 491.23103,-31.76119 -29.33503,127.064 c 0,0 -8.00046,34.65381 40.72232,34.65381 l 82.7472,0 c -4.1302,17.88982 -6.1115,26.47167 -54.2049,26.47167 l -83.37655,0 -7.44487,32.2473 131.46992,0 c 60.6282,0 82.4158,0 89.8607,-32.2473 l 43.447,-188.18948 -82.4158,0 -29.335,127.064 -48.0935,0 29.335,-127.064 -83.37649,0 z m 246.24669,0 -14.3342,62.08809 83.7467,0 14.3342,-62.08809 -83.7467,0 z m -23.0013,99.62972 -14.3342,62.08809 83.7466,0 14.3342,-62.08809 -83.7466,0 z m 195.0806,-158.83 -115.3597,247.38976 42.1718,0 115.3597,-247.38976 -42.1718,0 z m 93.3728,0 -115.3597,247.38976 42.1718,0 115.3597,-247.38976 -42.1718,0 z"/><path id="path3687" fill="#a4eb10" fill-opacity="1" fill-rule="evenodd" stroke="none" d="m 108.55816,280.40495 -10.312495,44.78125 83.437495,0 10.34375,-44.78125 -83.46875,0 z m -13.656245,59.21875 -38.031254,161.8125 84.124999,0 37.34375,-161.8125 -83.437495,0 z" display="inline"/><path id="path3316-0" fill="#a4eb10" fill-opacity="1" fill-rule="evenodd" stroke="none" d="m 202.0297,401.83649 -8.09375,35.0625 45.5625,0 8.09375,-35.0625 -45.5625,0 z" display="inline"/></g></svg>