<svg xmlns="http://www.w3.org/2000/svg" xmlns:svg="http://www.w3.org/2000/svg" xmlns:xlink="http://www.w3.org/1999/xlink" id="svg2" width="144" height="144" version="1.0"><defs id="defs4"><linearGradient id="linearGradient3821"><stop id="stop3823" offset="0" stop-color="#b82302" stop-opacity="1"/><stop id="stop3829" offset=".5" stop-color="#fc390e" stop-opacity="1"/><stop id="stop3825" offset="1" stop-color="#fd7a5d" stop-opacity="1"/></linearGradient><linearGradient id="linearGradient3806"><stop id="stop3808" offset="0" stop-color="#70a10b" stop-opacity="1"/><stop id="stop3814" offset=".5" stop-color="#a4eb10" stop-opacity="1"/><stop id="stop3810" offset="1" stop-color="#d0f67e" stop-opacity="1"/></linearGradient><linearGradient id="linearGradient3767"><stop id="stop3769" offset="0" stop-color="#ffccc5" stop-opacity="1"/><stop id="stop3771" offset="1" stop-color="#ff6b56" stop-opacity="1"/></linearGradient><linearGradient id="linearGradient3699"><stop id="stop3701" offset="0" stop-color="#000" stop-opacity="1"/><stop id="stop3703" offset="1" stop-color="#000" stop-opacity="0"/></linearGradient><linearGradient id="linearGradient3683"><stop id="stop3685" offset="0" stop-color="#fff" stop-opacity=".887"/><stop id="stop3687" offset="1" stop-color="#fff" stop-opacity="0"/></linearGradient><linearGradient id="linearGradient4069"><stop id="stop4071" offset="0" stop-color="#f4f3fe" stop-opacity="1"/><stop id="stop4249" offset=".731" stop-color="#8e84d6" stop-opacity="1"/><stop id="stop4073" offset="1" stop-color="#2815af" stop-opacity="1"/></linearGradient><linearGradient id="linearGradient3600"><stop id="stop3602" offset="0" stop-color="#fc390e" stop-opacity="1"/><stop id="stop3604" offset="1" stop-color="#fd9a85" stop-opacity="1"/></linearGradient><filter id="filter3692" width="1.5" height="1.5" x="-.25" y="-.25" color-interpolation-filters="sRGB"><feGaussianBlur id="feGaussianBlur3694" in="SourceAlpha" result="blur" stdDeviation="1"/><feColorMatrix id="feColorMatrix3696" result="bluralpha" type="matrix" values="1 0 0 0 0 0 1 0 0 0 0 0 1 0 0 0 0 0 1.000000 0"/><feOffset id="feOffset3698" dx="0" dy="0" in="bluralpha" result="offsetBlur"/><feMerge id="feMerge3700"><feMergeNode id="feMergeNode3702" in="offsetBlur"/><feMergeNode id="feMergeNode3704" in="SourceGraphic"/></feMerge></filter><linearGradient id="linearGradient3606-7" x1="39" x2="39" y1="22" y2="-30" gradientUnits="userSpaceOnUse" xlink:href="#linearGradient3600-9"/><linearGradient id="linearGradient3600-9"><stop id="stop3602-1" offset="0" stop-color="#fc390e" stop-opacity="1"/><stop id="stop3604-3" offset="1" stop-color="#fed0c6" stop-opacity="1"/></linearGradient><linearGradient id="linearGradient3965" x1="39" x2="39" y1="22" y2="-30" gradientTransform="translate(1.845606,221.31978)" gradientUnits="userSpaceOnUse" xlink:href="#linearGradient3600"/><linearGradient id="linearGradient3965-0" x1="39" x2="39" y1="22" y2="-30" gradientTransform="translate(1.845606,221.31978)" gradientUnits="userSpaceOnUse" xlink:href="#linearGradient3600-95"/><linearGradient id="linearGradient3600-95"><stop id="stop3602-3" offset="0" stop-color="#fc390e" stop-opacity="1"/><stop id="stop3604-8" offset="1" stop-color="#fd9a85" stop-opacity="1"/></linearGradient><radialGradient id="radialGradient3689" cx="38.023" cy="170.497" r="29.594" fx="38.023" fy="170.497" gradientTransform="matrix(-0.54418933,-1.0688069e-8,0,-0.40006699,58.537282,258.88884)" gradientUnits="userSpaceOnUse" xlink:href="#linearGradient3683"/><radialGradient id="radialGradient3705" cx="37.846" cy="248.334" r="29.594" fx="37.846" fy="248.334" gradientTransform="matrix(1,0,0,0.50052795,0,115.93046)" gradientUnits="userSpaceOnUse" xlink:href="#linearGradient3699"/><filter id="filter3751" width="1.5" height="1.5" x="-.25" y="-.25" color-interpolation-filters="sRGB"><feGaussianBlur id="feGaussianBlur3753" in="SourceAlpha" result="blur" stdDeviation="1"/><feColorMatrix id="feColorMatrix3755" result="bluralpha" type="matrix" values="1 0 0 0 0 0 1 0 0 0 0 0 1 0 0 0 0 0 0.700000 0"/><feOffset id="feOffset3757" dx="0" dy="0" in="bluralpha" result="offsetBlur"/><feMerge id="feMerge3759" result="fbSourceGraphic"><feMergeNode id="feMergeNode3761" in="offsetBlur"/><feMergeNode id="feMergeNode3763" in="SourceGraphic"/></feMerge><feColorMatrix id="feColorMatrix3892" in="fbSourceGraphic" result="fbSourceGraphicAlpha" values="0 0 0 -1 0 0 0 0 -1 0 0 0 0 -1 0 0 0 0 1 0"/><feGaussianBlur id="feGaussianBlur3894" in="fbSourceGraphicAlpha" result="blur" stdDeviation="1"/><feColorMatrix id="feColorMatrix3896" result="bluralpha" type="matrix" values="1 0 0 0 0 0 1 0 0 0 0 0 1 0 0 0 0 0 0.700000 0"/><feOffset id="feOffset3898" dx="0" dy="0" in="bluralpha" result="offsetBlur"/><feMerge id="feMerge3900"><feMergeNode id="feMergeNode3902" in="offsetBlur"/><feMergeNode id="feMergeNode3904" in="fbSourceGraphic"/></feMerge></filter><radialGradient id="radialGradient3868" cx="36.706" cy="195.124" r="31.534" fx="36.706" fy="195.124" gradientTransform="matrix(-8.8006918e-4,1.5404146,-1.8180408,-0.00103872,391.64719,139.27166)" gradientUnits="userSpaceOnUse" xlink:href="#linearGradient3767"/><radialGradient id="radialGradient3877" cx="36.706" cy="195.124" r="31.534" fx="36.706" fy="195.124" gradientTransform="matrix(-8.8006918e-4,1.5404146,-1.8180408,-0.00103872,389.80158,-42.04812)" gradientUnits="userSpaceOnUse" xlink:href="#linearGradient3767"/><radialGradient id="radialGradient3890" cx="36.706" cy="195.124" r="31.534" fx="36.706" fy="195.124" gradientTransform="matrix(-8.8006918e-4,1.5404146,-1.8180408,-0.00103872,389.80158,-42.04812)" gradientUnits="userSpaceOnUse" xlink:href="#linearGradient3767"/><radialGradient id="radialGradient3908" cx="36.706" cy="195.124" r="31.534" fx="36.706" fy="195.124" gradientTransform="matrix(-0.00149719,2.6245482,-3.0928769,-0.00176976,675.6881,48.253399)" gradientUnits="userSpaceOnUse" xlink:href="#linearGradient3767"/><linearGradient id="linearGradient3732" x1="126.346" x2="21.346" y1="233.82" y2="128.82" gradientTransform="matrix(1.0192308,0,0,1.0192307,-1.4201081,-3.4868979)" gradientUnits="userSpaceOnUse" xlink:href="#linearGradient3600-9"/><filter id="filter3892" width="1.24" height="1.24" x="-.12" y="-.12"><feGaussianBlur id="feGaussianBlur3895" stdDeviation="5.6"/></filter><filter id="filter3792" width="1.616" height="1.502" x="-.308" y="-.251"><feGaussianBlur id="feGaussianBlur3794" stdDeviation="11.591"/></filter><linearGradient id="linearGradient3812" x1="56.846" x2="56.846" y1="210.339" y2="130.346" gradientUnits="userSpaceOnUse" xlink:href="#linearGradient3806"/><linearGradient id="linearGradient3827" x1="81.483" x2="81.739" y1="232.293" y2="130.394" gradientUnits="userSpaceOnUse" xlink:href="#linearGradient3821"/></defs><metadata id="metadata7"/><g id="layer2" display="inline" transform="translate(-1.845606,-109.31978)"><path font-size="medium" style="text-indent:0;text-align:start;line-height:normal;text-transform:none;block-progression:tb;marker:none;-inkscape-font-specification:Bitstream Charter" id="path2938" fill="#fff" fill-opacity="1" fill-rule="evenodd" stroke="none" stroke-width="8.915" d="m 50.823917,125.9005 c -1.85119,0.18602 -3.502668,1.65254 -3.90625,3.46875 l -3.625,16.21875 c -0.205094,0.92534 -0.104944,1.9157 0.28125,2.78125 -0.719214,0.62132 -1.231272,1.47847 -1.4375,2.40625 l -13.375,58.5625 c -0.303153,1.30251 0.01939,2.73621 0.851156,3.7834 0.831768,1.04719 2.155267,1.68585 3.492594,1.68535 l 24.8125,0 c -0.722806,0.79656 -1.142173,1.86198 -1.15625,2.9375 l -0.3125,14.4375 c -0.05555,2.37236 2.095744,4.56879 4.46875,4.5625 l 23.65625,-0.0937 c 0.08331,0.002 0.166689,0.002 0.25,0 3.108311,-0.17675 6.29019,-1.37733 8.59375,-3.6875 2.303561,-2.31017 3.717426,-5.36539 4.78125,-9.09375 0.02324,-0.0827 0.04408,-0.16609 0.0625,-0.25 l 15.874993,-70.8125 c 0.20226,-0.93832 0.0908,-1.94147 -0.3125,-2.8125 0.74758,-0.61998 1.28343,-1.49074 1.5,-2.4375 l 3.625,-16.1875 c 0.58469,-2.59657 -1.68216,-5.43422 -4.34375,-5.4375 l -29.343743,0 c -0.808396,-0.006 -1.617439,0.21216 -2.3125,0.625 -0.700761,-0.42915 -1.522029,-0.6591 -2.34375,-0.65625 l -29.34375,0 c -0.145716,-0.007 -0.291784,-0.007 -0.4375,0 z" color="#000" direction="ltr" display="inline" enable-background="accumulate" filter="url(#filter3792)" font-family="Bitstream Charter" font-stretch="normal" font-style="normal" font-variant="normal" font-weight="normal" letter-spacing="normal" overflow="visible" text-anchor="start" text-decoration="none" visibility="visible" word-spacing="normal" writing-mode="lr-tb"/><path id="path3930" fill="#fc390e" fill-opacity="1" fill-rule="evenodd" stroke="#000" stroke-dasharray="none" stroke-linecap="butt" stroke-linejoin="round" stroke-miterlimit="4" stroke-opacity="1" stroke-width="8.915" d="m 80.465862,151.81941 -14.230747,63.48215 c -0.845662,2.55472 -2.133839,2.41833 -5.009081,2.53445 l -0.338273,14.45746 23.67849,-0.087 c 4.594758,-0.26128 7.458311,-2.94388 9.346949,-9.56295 l 15.87656,-70.82403 -29.323898,0 z" display="inline"/><path id="path3928" fill="#fc390e" fill-opacity="1" fill-rule="evenodd" stroke="#000" stroke-dasharray="none" stroke-linecap="butt" stroke-linejoin="round" stroke-miterlimit="4" stroke-opacity="1" stroke-width="8.915" d="m 85.268671,130.39448 -3.631392,16.19934 29.323901,0 3.63139,-16.19934 -29.323899,0 z" display="inline"/><path id="path3908" fill="url(#linearGradient3827)" fill-opacity="1" fill-rule="evenodd" stroke="none" d="m 85.268671,130.39448 -3.631392,16.19934 29.323901,0 3.63139,-16.19934 -29.323899,0 z m -4.802809,21.42493 -14.230747,63.48215 c -0.845662,2.55472 -2.133839,2.41833 -5.009091,2.53445 l -0.338263,14.45746 23.67849,-0.087 c 4.594758,-0.26128 7.458311,-2.94388 9.346949,-9.56295 l 15.87656,-70.82403 -29.323898,0 z"/><path id="path3693" fill="#fc390e" fill-opacity="1" fill-rule="evenodd" stroke="#000" stroke-dasharray="none" stroke-linejoin="round" stroke-miterlimit="4.1" stroke-opacity="1" stroke-width="8.915" d="m 51.261863,130.3461 -3.623851,16.20659 29.320305,0 3.634838,-16.20659 -29.331292,0 z m -4.798862,21.4316 -13.364355,58.56087 29.561907,0 13.122753,-58.56087 -29.320305,0 z" display="inline"/><path id="path3687" fill="url(#linearGradient3812)" fill-opacity="1" fill-rule="evenodd" stroke="none" d="m 51.261863,130.3461 -3.623851,16.20659 29.320305,0 3.634838,-16.20659 -29.331292,0 z m -4.798862,21.4316 -13.364355,58.56087 29.561907,0 13.122753,-58.56087 -29.320305,0 z" display="inline"/></g></svg>