<svg xmlns="http://www.w3.org/2000/svg" xmlns:svg="http://www.w3.org/2000/svg" xmlns:xlink="http://www.w3.org/1999/xlink" id="svg2" width="144" height="144" version="1.0"><defs id="defs4"><linearGradient id="linearGradient3767"><stop id="stop3769" offset="0" stop-color="#ffccc5" stop-opacity="1"/><stop id="stop3771" offset="1" stop-color="#ff6b56" stop-opacity="1"/></linearGradient><linearGradient id="linearGradient3699"><stop id="stop3701" offset="0" stop-color="#000" stop-opacity="1"/><stop id="stop3703" offset="1" stop-color="#000" stop-opacity="0"/></linearGradient><linearGradient id="linearGradient3683"><stop id="stop3685" offset="0" stop-color="#fff" stop-opacity=".887"/><stop id="stop3687" offset="1" stop-color="#fff" stop-opacity="0"/></linearGradient><linearGradient id="linearGradient4069"><stop id="stop4071" offset="0" stop-color="#f4f3fe" stop-opacity="1"/><stop id="stop4249" offset=".731" stop-color="#8e84d6" stop-opacity="1"/><stop id="stop4073" offset="1" stop-color="#2815af" stop-opacity="1"/></linearGradient><linearGradient id="linearGradient3600"><stop id="stop3602" offset="0" stop-color="#fc390e" stop-opacity="1"/><stop id="stop3604" offset="1" stop-color="#fd9a85" stop-opacity="1"/></linearGradient><filter id="filter3692" width="1.5" height="1.5" x="-.25" y="-.25" color-interpolation-filters="sRGB"><feGaussianBlur id="feGaussianBlur3694" in="SourceAlpha" result="blur" stdDeviation="1"/><feColorMatrix id="feColorMatrix3696" result="bluralpha" type="matrix" values="1 0 0 0 0 0 1 0 0 0 0 0 1 0 0 0 0 0 1.000000 0"/><feOffset id="feOffset3698" dx="0" dy="0" in="bluralpha" result="offsetBlur"/><feMerge id="feMerge3700"><feMergeNode id="feMergeNode3702" in="offsetBlur"/><feMergeNode id="feMergeNode3704" in="SourceGraphic"/></feMerge></filter><linearGradient id="linearGradient3606-7" x1="39" x2="39" y1="22" y2="-30" gradientUnits="userSpaceOnUse" xlink:href="#linearGradient3600-9"/><linearGradient id="linearGradient3600-9"><stop id="stop3602-1" offset="0" stop-color="#fc390e" stop-opacity="1"/><stop id="stop3604-3" offset="1" stop-color="#fed0c6" stop-opacity="1"/></linearGradient><linearGradient id="linearGradient3965" x1="39" x2="39" y1="22" y2="-30" gradientTransform="translate(1.845606,221.31978)" gradientUnits="userSpaceOnUse" xlink:href="#linearGradient3600"/><linearGradient id="linearGradient3965-0" x1="39" x2="39" y1="22" y2="-30" gradientTransform="translate(1.845606,221.31978)" gradientUnits="userSpaceOnUse" xlink:href="#linearGradient3600-95"/><linearGradient id="linearGradient3600-95"><stop id="stop3602-3" offset="0" stop-color="#fc390e" stop-opacity="1"/><stop id="stop3604-8" offset="1" stop-color="#fd9a85" stop-opacity="1"/></linearGradient><radialGradient id="radialGradient3689" cx="38.023" cy="170.497" r="29.594" fx="38.023" fy="170.497" gradientTransform="matrix(-0.54418933,-1.0688069e-8,0,-0.40006699,58.537282,258.88884)" gradientUnits="userSpaceOnUse" xlink:href="#linearGradient3683"/><radialGradient id="radialGradient3705" cx="37.846" cy="248.334" r="29.594" fx="37.846" fy="248.334" gradientTransform="matrix(1,0,0,0.50052795,0,115.93046)" gradientUnits="userSpaceOnUse" xlink:href="#linearGradient3699"/><filter id="filter3751" width="1.5" height="1.5" x="-.25" y="-.25" color-interpolation-filters="sRGB"><feGaussianBlur id="feGaussianBlur3753" in="SourceAlpha" result="blur" stdDeviation="1"/><feColorMatrix id="feColorMatrix3755" result="bluralpha" type="matrix" values="1 0 0 0 0 0 1 0 0 0 0 0 1 0 0 0 0 0 0.700000 0"/><feOffset id="feOffset3757" dx="0" dy="0" in="bluralpha" result="offsetBlur"/><feMerge id="feMerge3759" result="fbSourceGraphic"><feMergeNode id="feMergeNode3761" in="offsetBlur"/><feMergeNode id="feMergeNode3763" in="SourceGraphic"/></feMerge><feColorMatrix id="feColorMatrix3892" in="fbSourceGraphic" result="fbSourceGraphicAlpha" values="0 0 0 -1 0 0 0 0 -1 0 0 0 0 -1 0 0 0 0 1 0"/><feGaussianBlur id="feGaussianBlur3894" in="fbSourceGraphicAlpha" result="blur" stdDeviation="1"/><feColorMatrix id="feColorMatrix3896" result="bluralpha" type="matrix" values="1 0 0 0 0 0 1 0 0 0 0 0 1 0 0 0 0 0 0.700000 0"/><feOffset id="feOffset3898" dx="0" dy="0" in="bluralpha" result="offsetBlur"/><feMerge id="feMerge3900"><feMergeNode id="feMergeNode3902" in="offsetBlur"/><feMergeNode id="feMergeNode3904" in="fbSourceGraphic"/></feMerge></filter><radialGradient id="radialGradient3868" cx="36.706" cy="195.124" r="31.534" fx="36.706" fy="195.124" gradientTransform="matrix(-8.8006918e-4,1.5404146,-1.8180408,-0.00103872,391.64719,139.27166)" gradientUnits="userSpaceOnUse" xlink:href="#linearGradient3767"/><radialGradient id="radialGradient3877" cx="36.706" cy="195.124" r="31.534" fx="36.706" fy="195.124" gradientTransform="matrix(-8.8006918e-4,1.5404146,-1.8180408,-0.00103872,389.80158,-42.04812)" gradientUnits="userSpaceOnUse" xlink:href="#linearGradient3767"/><radialGradient id="radialGradient3890" cx="36.706" cy="195.124" r="31.534" fx="36.706" fy="195.124" gradientTransform="matrix(-8.8006918e-4,1.5404146,-1.8180408,-0.00103872,389.80158,-42.04812)" gradientUnits="userSpaceOnUse" xlink:href="#linearGradient3767"/><radialGradient id="radialGradient3908" cx="36.706" cy="195.124" r="31.534" fx="36.706" fy="195.124" gradientTransform="matrix(-0.00149719,2.6245482,-3.0928769,-0.00176976,675.6881,48.253399)" gradientUnits="userSpaceOnUse" xlink:href="#linearGradient3767"/><linearGradient id="linearGradient3732" x1="126.346" x2="21.346" y1="233.82" y2="128.82" gradientTransform="matrix(1.0192308,0,0,1.0192307,-1.4201081,-3.4868979)" gradientUnits="userSpaceOnUse" xlink:href="#linearGradient3600-9"/><filter id="filter3848" width="1.264" height="1.264" x="-.132" y="-.132"><feGaussianBlur id="feGaussianBlur3850" stdDeviation="6.16"/></filter><filter id="filter3892" width="1.24" height="1.24" x="-.12" y="-.12"><feGaussianBlur id="feGaussianBlur3895" stdDeviation="5.6"/></filter></defs><metadata id="metadata7"/><g id="layer2" display="inline" transform="translate(-1.845606,-109.31978)"><rect id="rect3814" width="112" height="112" x="17.846" y="127.082" fill="#000" fill-opacity="1" fill-rule="nonzero" stroke="none" filter="url(#filter3892)" ry="6.204"/><rect id="rect3707" width="114" height="114" x="16.846" y="124.32" fill="#fff" fill-opacity="1" fill-rule="nonzero" stroke="none" ry="6.314"/><path id="rect3765" fill="url(#radialGradient3908)" fill-opacity="1" fill-rule="nonzero" stroke="none" d="m 24.673285,128.41368 c -2.014943,0 -3.615078,1.60255 -3.615078,3.62056 l 0,98.39406 c 0,2.018 1.600135,3.62056 3.615078,3.62056 l 98.245105,0 c 2.01495,0 3.61509,-1.60256 3.61509,-3.62056 l 0,-98.39406 c 0,-2.01801 -1.60014,-3.62056 -3.61509,-3.62056 l -98.245105,0 z"/><path id="path3193" fill="#000" fill-opacity="1" fill-rule="evenodd" stroke="none" stroke-width="8.848" d="m 90.513676,132.56978 a 4.512003,4.4242104 0 0 0 -4.079374,2.5625 l -35.535178,74.75 3.601322,-15.34375 a 4.512003,4.4242104 0 0 0 -4.398076,-5.40625 l -29.256764,0 0,19.15625 2.453998,-10.3125 21.129886,0 -3.12327,13.25 -20.460614,0 0,8.84375 24.061936,0 a 4.512003,4.4242104 0 0 0 1.242934,-0.15625 l -1.593505,3.3125 a 4.512003,4.4242104 0 0 0 4.079375,6.28125 l 15.329524,0 a 4.512003,4.4242104 0 0 0 4.079376,-2.5625 l 41.877334,-88.0625 a 4.512003,4.4242104 0 0 0 -4.07938,-6.3125 l -15.329524,0 z m 33.909804,0 a 4.512003,4.4242104 0 0 0 -4.07938,2.5625 l -41.877328,88.09375 a 4.512003,4.4242104 0 0 0 4.079376,6.28125 l 15.297654,0 a 4.512003,4.4242104 0 0 0 4.111248,-2.5625 l 24.89056,-52.34375 0,-21 -31.870118,67.0625 -5.35418,0 37.224298,-78.25 0,-9.84375 -2.42213,0 z m -31.009624,8.84375 5.35418,0 -37.702346,79.25 -5.35418,0 37.702346,-79.25 z m -65.811786,12.25 a 4.512003,4.4242104 0 0 0 -3.951894,3.40625 l -2.80457,11.9375 0,15.125 a 4.512003,4.4242104 0 0 0 1.975948,0.46875 l 30.435958,0 a 4.512003,4.4242104 0 0 0 4.398076,-3.40625 l 5.194828,-22.125 a 4.512003,4.4242104 0 0 0 -4.398076,-5.40625 l -30.404088,0 a 4.512003,4.4242104 0 0 0 -0.446182,0 z m 4.047504,8.84375 21.129886,0 -3.12327,13.25 -21.161756,0 3.15514,-13.25 z" color="#000" direction="ltr" display="inline" enable-background="accumulate" font-family="AlArabiya" font-size="medium" font-stretch="normal" font-style="normal" font-variant="normal" font-weight="normal" letter-spacing="normal" overflow="visible" text-anchor="start" text-decoration="none" visibility="visible" word-spacing="normal" writing-mode="lr-tb" style="text-indent:0;text-align:start;line-height:normal;text-transform:none;block-progression:tb;marker:none;-inkscape-font-specification:AlArabiya"/><path id="path3316" fill="#fc390e" fill-opacity="1" fill-rule="evenodd" stroke="none" d="m 90.4091,137.00728 -41.81447,88.0625 15.274693,0 41.846287,-88.0625 -15.30651,0 z m 33.8589,0 -41.814468,88.0625 15.274692,0 29.117386,-61.28125 0,-26.78125 -2.57761,0 z m -96.230559,21.0625 -5.218854,22.125 30.390274,0 5.18703,-22.125 -30.35845,0 z m -7.191835,35.46875 0,22.125 24.025818,0 5.187031,-22.125 -29.212849,0 z"/><rect id="rect3875" width="106" height="106" x="20.846" y="128.32" fill="none" stroke="url(#linearGradient3732)" stroke-dasharray="none" stroke-miterlimit="4" stroke-opacity="1" stroke-width="1.019" ry="3.655"/></g></svg>