<svg xmlns="http://www.w3.org/2000/svg" xmlns:svg="http://www.w3.org/2000/svg" xmlns:xlink="http://www.w3.org/1999/xlink" id="svg2" width="144" height="144" version="1.0"><defs id="defs4"><linearGradient id="linearGradient3767"><stop id="stop3769" offset="0" stop-color="#ffccc5" stop-opacity="1"/><stop id="stop3771" offset="1" stop-color="#ff6b56" stop-opacity="1"/></linearGradient><linearGradient id="linearGradient3699"><stop id="stop3701" offset="0" stop-color="#000" stop-opacity="1"/><stop id="stop3703" offset="1" stop-color="#000" stop-opacity="0"/></linearGradient><linearGradient id="linearGradient3683"><stop id="stop3685" offset="0" stop-color="#fff" stop-opacity=".887"/><stop id="stop3687" offset="1" stop-color="#fff" stop-opacity="0"/></linearGradient><linearGradient id="linearGradient4069"><stop id="stop4071" offset="0" stop-color="#f4f3fe" stop-opacity="1"/><stop id="stop4249" offset=".731" stop-color="#8e84d6" stop-opacity="1"/><stop id="stop4073" offset="1" stop-color="#2815af" stop-opacity="1"/></linearGradient><linearGradient id="linearGradient3600"><stop id="stop3602" offset="0" stop-color="#fc390e" stop-opacity="1"/><stop id="stop3604" offset="1" stop-color="#fd9a85" stop-opacity="1"/></linearGradient><filter id="filter3692" width="1.5" height="1.5" x="-.25" y="-.25" color-interpolation-filters="sRGB"><feGaussianBlur id="feGaussianBlur3694" in="SourceAlpha" result="blur" stdDeviation="1"/><feColorMatrix id="feColorMatrix3696" result="bluralpha" type="matrix" values="1 0 0 0 0 0 1 0 0 0 0 0 1 0 0 0 0 0 1.000000 0"/><feOffset id="feOffset3698" dx="0" dy="0" in="bluralpha" result="offsetBlur"/><feMerge id="feMerge3700"><feMergeNode id="feMergeNode3702" in="offsetBlur"/><feMergeNode id="feMergeNode3704" in="SourceGraphic"/></feMerge></filter><linearGradient id="linearGradient3606-7" x1="39" x2="39" y1="22" y2="-30" gradientUnits="userSpaceOnUse" xlink:href="#linearGradient3600-9"/><linearGradient id="linearGradient3600-9"><stop id="stop3602-1" offset="0" stop-color="#fc390e" stop-opacity="1"/><stop id="stop3604-3" offset="1" stop-color="#fed0c6" stop-opacity="1"/></linearGradient><linearGradient id="linearGradient3965" x1="39" x2="39" y1="22" y2="-30" gradientTransform="translate(1.845606,221.31978)" gradientUnits="userSpaceOnUse" xlink:href="#linearGradient3600"/><linearGradient id="linearGradient3965-0" x1="39" x2="39" y1="22" y2="-30" gradientTransform="translate(1.845606,221.31978)" gradientUnits="userSpaceOnUse" xlink:href="#linearGradient3600-95"/><linearGradient id="linearGradient3600-95"><stop id="stop3602-3" offset="0" stop-color="#fc390e" stop-opacity="1"/><stop id="stop3604-8" offset="1" stop-color="#fd9a85" stop-opacity="1"/></linearGradient><radialGradient id="radialGradient3689" cx="38.023" cy="170.497" r="29.594" fx="38.023" fy="170.497" gradientTransform="matrix(-0.54418933,-1.0688069e-8,0,-0.40006699,58.537282,258.88884)" gradientUnits="userSpaceOnUse" xlink:href="#linearGradient3683"/><radialGradient id="radialGradient3705" cx="37.846" cy="248.334" r="29.594" fx="37.846" fy="248.334" gradientTransform="matrix(1,0,0,0.50052795,0,115.93046)" gradientUnits="userSpaceOnUse" xlink:href="#linearGradient3699"/><filter id="filter3751" width="1.5" height="1.5" x="-.25" y="-.25" color-interpolation-filters="sRGB"><feGaussianBlur id="feGaussianBlur3753" in="SourceAlpha" result="blur" stdDeviation="1"/><feColorMatrix id="feColorMatrix3755" result="bluralpha" type="matrix" values="1 0 0 0 0 0 1 0 0 0 0 0 1 0 0 0 0 0 0.700000 0"/><feOffset id="feOffset3757" dx="0" dy="0" in="bluralpha" result="offsetBlur"/><feMerge id="feMerge3759" result="fbSourceGraphic"><feMergeNode id="feMergeNode3761" in="offsetBlur"/><feMergeNode id="feMergeNode3763" in="SourceGraphic"/></feMerge><feColorMatrix id="feColorMatrix3892" in="fbSourceGraphic" result="fbSourceGraphicAlpha" values="0 0 0 -1 0 0 0 0 -1 0 0 0 0 -1 0 0 0 0 1 0"/><feGaussianBlur id="feGaussianBlur3894" in="fbSourceGraphicAlpha" result="blur" stdDeviation="1"/><feColorMatrix id="feColorMatrix3896" result="bluralpha" type="matrix" values="1 0 0 0 0 0 1 0 0 0 0 0 1 0 0 0 0 0 0.700000 0"/><feOffset id="feOffset3898" dx="0" dy="0" in="bluralpha" result="offsetBlur"/><feMerge id="feMerge3900"><feMergeNode id="feMergeNode3902" in="offsetBlur"/><feMergeNode id="feMergeNode3904" in="fbSourceGraphic"/></feMerge></filter><radialGradient id="radialGradient3868" cx="36.706" cy="195.124" r="31.534" fx="36.706" fy="195.124" gradientTransform="matrix(-8.8006918e-4,1.5404146,-1.8180408,-0.00103872,391.64719,139.27166)" gradientUnits="userSpaceOnUse" xlink:href="#linearGradient3767"/><radialGradient id="radialGradient3877" cx="36.706" cy="195.124" r="31.534" fx="36.706" fy="195.124" gradientTransform="matrix(-8.8006918e-4,1.5404146,-1.8180408,-0.00103872,389.80158,-42.04812)" gradientUnits="userSpaceOnUse" xlink:href="#linearGradient3767"/><radialGradient id="radialGradient3890" cx="36.706" cy="195.124" r="31.534" fx="36.706" fy="195.124" gradientTransform="matrix(-8.8006918e-4,1.5404146,-1.8180408,-0.00103872,389.80158,-42.04812)" gradientUnits="userSpaceOnUse" xlink:href="#linearGradient3767"/><radialGradient id="radialGradient3908" cx="36.706" cy="195.124" r="31.534" fx="36.706" fy="195.124" gradientTransform="matrix(-0.00149719,2.6245482,-3.0928769,-0.00176976,675.6881,48.253399)" gradientUnits="userSpaceOnUse" xlink:href="#linearGradient3767"/><linearGradient id="linearGradient3732" x1="126.346" x2="21.346" y1="233.82" y2="128.82" gradientTransform="matrix(1.0192308,0,0,1.0192307,-1.4201081,-3.4868979)" gradientUnits="userSpaceOnUse" xlink:href="#linearGradient3600-9"/><linearGradient id="linearGradient3827" x1="81.483" x2="81.739" y1="232.293" y2="130.394" gradientUnits="userSpaceOnUse" xlink:href="#linearGradient3821"/><linearGradient id="linearGradient3812" x1="56.846" x2="56.846" y1="210.339" y2="130.346" gradientUnits="userSpaceOnUse" xlink:href="#linearGradient3806"/><linearGradient id="linearGradient3732-7" x1="126.346" x2="21.346" y1="233.82" y2="128.82" gradientTransform="matrix(1.0192308,0,0,1.0192307,-1.4201081,-3.4868979)" gradientUnits="userSpaceOnUse" xlink:href="#linearGradient3600-9-0"/><radialGradient id="radialGradient3908-2" cx="36.706" cy="195.124" r="31.534" fx="36.706" fy="195.124" gradientTransform="matrix(-0.00149719,2.6245482,-3.0928769,-0.00176976,675.6881,48.253399)" gradientUnits="userSpaceOnUse" xlink:href="#linearGradient3767-8"/><radialGradient id="radialGradient3890-0" cx="36.706" cy="195.124" r="31.534" fx="36.706" fy="195.124" gradientTransform="matrix(-8.8006918e-4,1.5404146,-1.8180408,-0.00103872,389.80158,-42.04812)" gradientUnits="userSpaceOnUse" xlink:href="#linearGradient3767-8"/><radialGradient id="radialGradient3877-6" cx="36.706" cy="195.124" r="31.534" fx="36.706" fy="195.124" gradientTransform="matrix(-8.8006918e-4,1.5404146,-1.8180408,-0.00103872,389.80158,-42.04812)" gradientUnits="userSpaceOnUse" xlink:href="#linearGradient3767-8"/><radialGradient id="radialGradient3868-9" cx="36.706" cy="195.124" r="31.534" fx="36.706" fy="195.124" gradientTransform="matrix(-8.8006918e-4,1.5404146,-1.8180408,-0.00103872,391.64719,139.27166)" gradientUnits="userSpaceOnUse" xlink:href="#linearGradient3767-8"/><filter id="filter3751-4" width="1.5" height="1.5" x="-.25" y="-.25" color-interpolation-filters="sRGB"><feGaussianBlur id="feGaussianBlur3753-6" in="SourceAlpha" result="blur" stdDeviation="1"/><feColorMatrix id="feColorMatrix3755-2" result="bluralpha" type="matrix" values="1 0 0 0 0 0 1 0 0 0 0 0 1 0 0 0 0 0 0.700000 0"/><feOffset id="feOffset3757-6" dx="0" dy="0" in="bluralpha" result="offsetBlur"/><feMerge id="feMerge3759-7" result="fbSourceGraphic"><feMergeNode id="feMergeNode3761-5" in="offsetBlur"/><feMergeNode id="feMergeNode3763-6" in="SourceGraphic"/></feMerge><feColorMatrix id="feColorMatrix3892-9" in="fbSourceGraphic" result="fbSourceGraphicAlpha" values="0 0 0 -1 0 0 0 0 -1 0 0 0 0 -1 0 0 0 0 1 0"/><feGaussianBlur id="feGaussianBlur3894-8" in="fbSourceGraphicAlpha" result="blur" stdDeviation="1"/><feColorMatrix id="feColorMatrix3896-7" result="bluralpha" type="matrix" values="1 0 0 0 0 0 1 0 0 0 0 0 1 0 0 0 0 0 0.700000 0"/><feOffset id="feOffset3898-2" dx="0" dy="0" in="bluralpha" result="offsetBlur"/><feMerge id="feMerge3900-8"><feMergeNode id="feMergeNode3902-2" in="offsetBlur"/><feMergeNode id="feMergeNode3904-9" in="fbSourceGraphic"/></feMerge></filter><radialGradient id="radialGradient3705-0" cx="37.846" cy="248.334" r="29.594" fx="37.846" fy="248.334" gradientTransform="matrix(1,0,0,0.50052795,0,115.93046)" gradientUnits="userSpaceOnUse" xlink:href="#linearGradient3699-6"/><radialGradient id="radialGradient3689-0" cx="38.023" cy="170.497" r="29.594" fx="38.023" fy="170.497" gradientTransform="matrix(-0.54418933,-1.0688069e-8,0,-0.40006699,58.537282,258.88884)" gradientUnits="userSpaceOnUse" xlink:href="#linearGradient3683-2"/><linearGradient id="linearGradient3600-95-9"><stop id="stop3602-3-3" offset="0" stop-color="#fc390e" stop-opacity="1"/><stop id="stop3604-8-3" offset="1" stop-color="#fd9a85" stop-opacity="1"/></linearGradient><linearGradient id="linearGradient3965-0-6" x1="39" x2="39" y1="22" y2="-30" gradientTransform="translate(1.845606,221.31978)" gradientUnits="userSpaceOnUse" xlink:href="#linearGradient3600-95-9"/><linearGradient id="linearGradient3965-1" x1="39" x2="39" y1="22" y2="-30" gradientTransform="translate(1.845606,221.31978)" gradientUnits="userSpaceOnUse" xlink:href="#linearGradient3600-7"/><linearGradient id="linearGradient3600-9-0"><stop id="stop3602-1-3" offset="0" stop-color="#fc390e" stop-opacity="1"/><stop id="stop3604-3-4" offset="1" stop-color="#fed0c6" stop-opacity="1"/></linearGradient><linearGradient id="linearGradient3606-7-1" x1="39" x2="39" y1="22" y2="-30" gradientUnits="userSpaceOnUse" xlink:href="#linearGradient3600-9-0"/><filter id="filter3692-2" width="1.5" height="1.5" x="-.25" y="-.25" color-interpolation-filters="sRGB"><feGaussianBlur id="feGaussianBlur3694-9" in="SourceAlpha" result="blur" stdDeviation="1"/><feColorMatrix id="feColorMatrix3696-9" result="bluralpha" type="matrix" values="1 0 0 0 0 0 1 0 0 0 0 0 1 0 0 0 0 0 1.000000 0"/><feOffset id="feOffset3698-0" dx="0" dy="0" in="bluralpha" result="offsetBlur"/><feMerge id="feMerge3700-8"><feMergeNode id="feMergeNode3702-1" in="offsetBlur"/><feMergeNode id="feMergeNode3704-3" in="SourceGraphic"/></feMerge></filter><linearGradient id="linearGradient3600-7"><stop id="stop3602-2" offset="0" stop-color="#fc390e" stop-opacity="1"/><stop id="stop3604-4" offset="1" stop-color="#fd9a85" stop-opacity="1"/></linearGradient><linearGradient id="linearGradient4069-6"><stop id="stop4071-2" offset="0" stop-color="#f4f3fe" stop-opacity="1"/><stop id="stop4249-8" offset=".731" stop-color="#8e84d6" stop-opacity="1"/><stop id="stop4073-4" offset="1" stop-color="#2815af" stop-opacity="1"/></linearGradient><linearGradient id="linearGradient3683-2"><stop id="stop3685-5" offset="0" stop-color="#fff" stop-opacity=".887"/><stop id="stop3687-8" offset="1" stop-color="#fff" stop-opacity="0"/></linearGradient><linearGradient id="linearGradient3699-6"><stop id="stop3701-4" offset="0" stop-color="#000" stop-opacity="1"/><stop id="stop3703-6" offset="1" stop-color="#000" stop-opacity="0"/></linearGradient><linearGradient id="linearGradient3767-8"><stop id="stop3769-5" offset="0" stop-color="#ffccc5" stop-opacity="1"/><stop id="stop3771-0" offset="1" stop-color="#ff6b56" stop-opacity="1"/></linearGradient><linearGradient id="linearGradient3806"><stop id="stop3808" offset="0" stop-color="#70a10b" stop-opacity="1"/><stop id="stop3814" offset=".5" stop-color="#a4eb10" stop-opacity="1"/><stop id="stop3810" offset="1" stop-color="#d0f67e" stop-opacity="1"/></linearGradient><linearGradient id="linearGradient3821"><stop id="stop3823" offset="0" stop-color="#b82302" stop-opacity="1"/><stop id="stop3829" offset=".5" stop-color="#fc390e" stop-opacity="1"/><stop id="stop3825" offset="1" stop-color="#fd7a5d" stop-opacity="1"/></linearGradient><linearGradient id="linearGradient3972" x1="46.615" x2="46.891" y1="211.156" y2="129.178" gradientUnits="userSpaceOnUse" xlink:href="#linearGradient3806"/><linearGradient id="linearGradient3989" x1="76.815" x2="76.9" y1="233.656" y2="129.227" gradientUnits="userSpaceOnUse" xlink:href="#linearGradient3821"/><linearGradient id="linearGradient4016" x1="76.815" x2="76.9" y1="233.656" y2="129.227" gradientUnits="userSpaceOnUse" xlink:href="#linearGradient3821"/><linearGradient id="linearGradient4018" x1="46.615" x2="46.891" y1="211.156" y2="129.178" gradientUnits="userSpaceOnUse" xlink:href="#linearGradient3806"/><linearGradient id="linearGradient4021" x1="46.615" x2="46.891" y1="211.156" y2="129.178" gradientTransform="translate(-146.28831,0.32690154)" gradientUnits="userSpaceOnUse" xlink:href="#linearGradient3806"/><linearGradient id="linearGradient4025" x1="76.815" x2="76.9" y1="233.656" y2="129.227" gradientTransform="translate(-146.28831,0.32690154)" gradientUnits="userSpaceOnUse" xlink:href="#linearGradient3821"/><linearGradient id="linearGradient4036" x1="76.815" x2="76.9" y1="233.656" y2="129.227" gradientUnits="userSpaceOnUse" xlink:href="#linearGradient3821"/><linearGradient id="linearGradient4038" x1="46.615" x2="46.891" y1="211.156" y2="129.178" gradientUnits="userSpaceOnUse" xlink:href="#linearGradient3806"/><filter id="filter4044" width="1.313" height="1.347" x="-.157" y="-.174"><feGaussianBlur id="feGaussianBlur4046" stdDeviation="8.227"/></filter><linearGradient id="linearGradient3791" x1="46.615" x2="46.891" y1="211.156" y2="129.178" gradientTransform="translate(16.092763,0.22975625)" gradientUnits="userSpaceOnUse" xlink:href="#linearGradient3806"/><linearGradient id="linearGradient3795" x1="76.815" x2="76.9" y1="233.656" y2="129.227" gradientTransform="translate(16.092763,0.22975625)" gradientUnits="userSpaceOnUse" xlink:href="#linearGradient3821"/><linearGradient id="linearGradient3805" x1="46.615" x2="46.891" y1="211.156" y2="129.178" gradientTransform="translate(16.092763,0.22975625)" gradientUnits="userSpaceOnUse" xlink:href="#linearGradient3806"/><linearGradient id="linearGradient3808" x1="46.615" x2="46.891" y1="211.156" y2="129.178" gradientTransform="translate(-4.502016,0.22975625)" gradientUnits="userSpaceOnUse" xlink:href="#linearGradient3806"/><linearGradient id="linearGradient3822" x1="73.331" x2="73.917" y1="233.821" y2="128.232" gradientUnits="userSpaceOnUse" xlink:href="#linearGradient3806"/><linearGradient id="linearGradient3828" x1="73.331" x2="73.917" y1="233.821" y2="128.232" gradientUnits="userSpaceOnUse" xlink:href="#linearGradient3806"/><linearGradient id="linearGradient3834" x1="46.615" x2="46.891" y1="211.156" y2="129.178" gradientTransform="translate(-4.502016,0.22975625)" gradientUnits="userSpaceOnUse" xlink:href="#linearGradient3806"/><linearGradient id="linearGradient3837" x1="73.331" x2="73.917" y1="233.821" y2="128.232" gradientTransform="translate(-1.307605,0)" gradientUnits="userSpaceOnUse" xlink:href="#linearGradient3806"/><linearGradient id="linearGradient3841" x1="46.615" x2="46.891" y1="211.156" y2="129.178" gradientTransform="translate(-5.3192691,0.22975625)" gradientUnits="userSpaceOnUse" xlink:href="#linearGradient3806"/><linearGradient id="linearGradient3848" x1="73.331" x2="73.917" y1="233.821" y2="128.232" gradientTransform="translate(-1.307605,0)" gradientUnits="userSpaceOnUse" xlink:href="#linearGradient3806"/><linearGradient id="linearGradient3854" x1="46.615" x2="46.891" y1="211.156" y2="129.178" gradientTransform="translate(-5.3192691,0.22975625)" gradientUnits="userSpaceOnUse" xlink:href="#linearGradient3806"/><linearGradient id="linearGradient3869" x1="76.815" x2="76.9" y1="233.656" y2="129.227" gradientTransform="translate(16.092763,0.22975625)" gradientUnits="userSpaceOnUse" xlink:href="#linearGradient3821"/><linearGradient id="linearGradient3871" x1="46.615" x2="46.891" y1="211.156" y2="129.178" gradientTransform="translate(-5.3192691,0.22975625)" gradientUnits="userSpaceOnUse" xlink:href="#linearGradient3806"/><linearGradient id="linearGradient3873" x1="73.331" x2="73.917" y1="233.821" y2="128.232" gradientTransform="translate(-1.307605,0)" gradientUnits="userSpaceOnUse" xlink:href="#linearGradient3806"/><linearGradient id="linearGradient3899" x1="76.815" x2="76.9" y1="233.656" y2="129.227" gradientTransform="translate(16.092763,0.22975625)" gradientUnits="userSpaceOnUse" xlink:href="#linearGradient3821"/><linearGradient id="linearGradient3901" x1="46.615" x2="46.891" y1="211.156" y2="129.178" gradientTransform="translate(-5.3192691,0.22975625)" gradientUnits="userSpaceOnUse" xlink:href="#linearGradient3806"/><linearGradient id="linearGradient3903" x1="73.331" x2="73.917" y1="233.821" y2="128.232" gradientTransform="translate(-1.307605,0)" gradientUnits="userSpaceOnUse" xlink:href="#linearGradient3806"/><linearGradient id="linearGradient3912" x1="76.815" x2="76.9" y1="233.656" y2="129.227" gradientTransform="matrix(0.89293764,0,0,0.89293764,-94.770046,94.513)" gradientUnits="userSpaceOnUse" xlink:href="#linearGradient3821"/><linearGradient id="linearGradient3918" x1="73.331" x2="73.917" y1="233.821" y2="128.232" gradientTransform="translate(-1.307605,0)" gradientUnits="userSpaceOnUse" xlink:href="#linearGradient3806"/><linearGradient id="linearGradient3921" x1="73.331" x2="73.917" y1="233.821" y2="128.232" gradientTransform="matrix(0.89293764,0,0,0.89293764,-110.74534,94.307842)" gradientUnits="userSpaceOnUse" xlink:href="#linearGradient3806"/><linearGradient id="linearGradient3924" x1="46.615" x2="46.891" y1="211.156" y2="129.178" gradientTransform="translate(-5.3192691,0.22975625)" gradientUnits="userSpaceOnUse" xlink:href="#linearGradient3806"/><linearGradient id="linearGradient3927" x1="46.615" x2="46.891" y1="211.156" y2="129.178" gradientTransform="matrix(0.89293764,0,0,0.89293764,-114.47346,94.513)" gradientUnits="userSpaceOnUse" xlink:href="#linearGradient3806"/><filter id="filter3951" width="1.212" height="1.276" x="-.106" y="-.138"><feGaussianBlur id="feGaussianBlur3953" stdDeviation="5.844"/></filter></defs><metadata id="metadata7"/><g id="layer2" display="inline" transform="translate(-1.845606,-109.31978)"><path font-size="medium" style="text-indent:0;text-align:start;line-height:normal;text-transform:none;block-progression:tb;marker:none;-inkscape-font-specification:Bitstream Charter" id="path3895" fill="#fff" fill-opacity="1" fill-rule="evenodd" stroke="none" stroke-width="8.279" d="m 28.986231,130.53852 c -1.856367,0.002 -3.618139,1.40893 -4.03125,3.21875 l -3.40625,14.8125 c -0.206066,0.85823 -0.128144,1.78216 0.21875,2.59375 -0.662846,0.56365 -1.140637,1.34145 -1.34375,2.1875 L 7.8299814,206.94477 c -0.55172,2.41399 1.55502,5.05966 4.0312496,5.0625 l 27.875,0 c 1.848094,0.001 3.60603,-1.38899 4.03125,-3.1875 l 5.21875,-22.65625 c 0.365463,0.10336 0.745203,0.1561 1.125,0.15625 l 14.375,0 -5.59375,24.25 c -0.272941,0.0198 -0.202238,-0.002 -1.0625,0.0312 -2.08482,0.0699 -3.94634,1.94595 -4,4.03125 l -0.3125,13.25 c -0.04185,2.19924 1.956634,4.22779 4.15625,4.2188 l 22.3125,-0.0625 c 0.0729,0.002 0.14585,0.002 0.21875,0 2.896599,-0.15994 5.860655,-1.26134 8.03125,-3.375 2.170595,-2.11366 3.524362,-4.91733 4.53125,-8.34375 0.02342,-0.0827 0.04427,-0.16605 0.0625,-0.25 l 1.875,-8.1875 c 0.335342,0.0952 0.682752,0.14786 1.03125,0.15625 l 27.718749,0 c 1.85637,-0.002 3.61814,-1.40893 4.03125,-3.21875 l 4.75,-20.5625 c 0.55172,-2.41399 -1.55502,-5.05966 -4.03125,-5.0625 l -26.875,0 1,-4.28125 c 0.3266,0.0821 0.66324,0.12421 1,0.125 l 27.75,0 c 1.85637,-0.002 3.61814,-1.40893 4.03125,-3.21875 l 4.75,-20.5625 c 0.55172,-2.41399 -1.55502,-5.05966 -4.03125,-5.0625 l -26.875,0 3.34375,-14.53125 c 0.57343,-2.4224 -1.5419,-5.09526 -4.03125,-5.09375 l -27.624999,0 c -1.856367,0.002 -3.618139,1.40893 -4.03125,3.21875 l -3.4375,14.84375 c -0.189539,0.85186 -0.100614,1.76334 0.25,2.5625 -0.668312,0.57166 -1.146754,1.36164 -1.34375,2.21875 l -3.28125,14.15625 c -0.441645,-0.14966 -0.908717,-0.22396 -1.375,-0.21875 l -14.09375,0 2.8125,-12.125 c 0.196322,-0.86152 0.107256,-1.78559 -0.25,-2.59375 0.662846,-0.56365 1.140637,-1.34145 1.34375,-2.1875 l 3.4375,-14.84375 c 0.551717,-2.41399 -1.55502,-5.05966 -4.03125,-5.0625 l -27.65625,0 z" color="#000" direction="ltr" display="inline" enable-background="accumulate" filter="url(#filter3951)" font-family="Bitstream Charter" font-stretch="normal" font-style="normal" font-variant="normal" font-weight="normal" letter-spacing="normal" overflow="visible" text-anchor="start" text-decoration="none" visibility="visible" word-spacing="normal" writing-mode="lr-tb"/><g id="g3856" transform="matrix(0.89293764,0,0,0.89293764,0.53548663,19.120555)"><path id="path2992" fill="#fc390e" fill-opacity="1" fill-rule="evenodd" stroke="#000" stroke-dasharray="none" stroke-linecap="butt" stroke-linejoin="round" stroke-miterlimit="4" stroke-opacity="1" stroke-width="9.272" d="m 84.640842,151.41384 -15.019897,65.05832 c -0.892558,2.61816 -2.252171,2.47839 -5.28686,2.59739 l -0.357022,14.81643 24.991553,-0.0893 c 4.849552,-0.26777 7.871901,-3.01697 9.865275,-9.80039 l 16.756989,-72.58248 -30.950038,0 z" display="inline"/><path id="path2990" fill="#fc390e" fill-opacity="1" fill-rule="evenodd" stroke="#000" stroke-dasharray="none" stroke-linecap="butt" stroke-linejoin="round" stroke-miterlimit="4" stroke-opacity="1" stroke-width="9.272" d="m 89.709983,129.45697 -3.832764,16.60154 30.950031,0 3.83276,-16.60154 -30.950027,0 z" display="inline"/><path id="path2982" fill="#fc390e" fill-opacity="1" fill-rule="evenodd" stroke="#000" stroke-dasharray="none" stroke-linecap="butt" stroke-linejoin="round" stroke-miterlimit="4" stroke-opacity="1" stroke-width="9.272" d="m 120.44716,151.41385 -5.31644,23.02793 31.06093,0 5.31642,-23.02793 -31.06091,0 z" display="inline"/><path id="path2980" fill="#fc390e" fill-opacity="1" fill-rule="evenodd" stroke="#000" stroke-dasharray="none" stroke-linecap="butt" stroke-linejoin="round" stroke-miterlimit="4" stroke-opacity="1" stroke-width="9.272" d="m 111.91617,188.36565 -5.31643,23.02793 31.06088,0 5.31644,-23.02793 -31.06089,0 z" display="inline"/><path id="path3000" fill="url(#linearGradient3869)" fill-opacity="1" fill-rule="evenodd" stroke="none" d="m 111.91614,188.36565 -5.31644,23.02793 31.06089,0 5.31644,-23.02793 -31.06089,0 z m 8.53098,-36.9518 -5.31644,23.02793 31.06093,0 5.31643,-23.02793 -31.06092,0 z m -30.737137,-21.95688 -3.832764,16.60154 30.950031,0 3.83276,-16.60154 -30.950027,0 z m -5.069141,21.95687 -15.019901,65.05832 c -0.892554,2.61816 -2.252171,2.47839 -5.28686,2.59739 l -0.357018,14.81643 24.991553,-0.0893 c 4.849552,-0.26777 7.871901,-3.01697 9.865275,-9.80039 l 16.756989,-72.58248 -30.950038,0 z"/><g id="g3850" transform="translate(-0.65380249,0)"><path id="path3693-4" fill="#fc390e" fill-opacity="1" fill-rule="evenodd" stroke="#000" stroke-dasharray="none" stroke-linejoin="round" stroke-miterlimit="4.1" stroke-opacity="1" stroke-width="9.272" d="m 32.515899,129.40739 -3.824816,16.60897 30.94624,0 3.836408,-16.60897 -30.957832,0 z m -5.064978,21.96372 -14.105466,60.01484 31.201228,0 13.850474,-60.01484 -30.946236,0 z" display="inline"/><path id="path3687-1" fill="url(#linearGradient3871)" fill-opacity="1" fill-rule="evenodd" stroke="none" d="m 32.515899,129.40739 -3.824816,16.60897 30.94624,0 3.836408,-16.60897 -30.957832,0 z m -5.064978,21.96372 -14.105466,60.01484 31.201228,0 13.850474,-60.01484 -30.946236,0 z" display="inline"/></g><g id="g3844" transform="translate(-0.49035187,0)"><path id="path3811" fill="#fc390e" fill-opacity="1" fill-rule="evenodd" stroke="#000" stroke-dasharray="none" stroke-linejoin="round" stroke-miterlimit="4.1" stroke-opacity="1" stroke-width="9.272" d="m 58.765398,170.61947 -2.760516,11.98733 16.614317,0 2.768882,-11.98733 -16.622683,0 z" display="inline"/><path id="path3813" fill="url(#linearGradient3873)" fill-opacity="1" fill-rule="evenodd" stroke="none" d="m 58.765398,170.61947 -2.760516,11.98733 16.614317,0 2.768882,-11.98733 -16.622683,0 z" display="inline"/></g></g></g></svg>