<svg xmlns="http://www.w3.org/2000/svg" xmlns:svg="http://www.w3.org/2000/svg" id="svg2" width="38" height="38" version="1.0"><metadata id="metadata7"/><g id="layer2" display="inline" transform="translate(-1.845606,-215.31978)"><g id="g2402" transform="matrix(0.08101148,0,0,0.08101148,-74.796815,201.57222)"><path id="path3193" fill="#fc390e" fill-opacity="1" fill-rule="evenodd" stroke="#000" stroke-dasharray="none" stroke-linecap="butt" stroke-linejoin="round" stroke-miterlimit="4" stroke-opacity="1" stroke-width="24.849" d="m 1045.4591,339.73892 -14.3342,62.08809 83.7467,0 14.3342,-62.08809 -83.7467,0 z m -23.0013,99.62972 -14.3342,62.08809 83.7466,0 14.3342,-62.08809 -83.7466,0 z m 195.0806,-158.83 -115.3597,247.38976 42.1718,0 115.3597,-247.38976 -42.1718,0 z m 93.3728,0 -115.3597,247.38976 42.1718,0 115.3597,-247.38976 -42.1718,0 z"/><path id="path3316" fill="#fc390e" fill-opacity="1" fill-rule="evenodd" stroke="none" d="m 1045.4591,339.73892 -14.3342,62.08809 83.7467,0 14.3342,-62.08809 -83.7467,0 z m -23.0013,99.62972 -14.3342,62.08809 83.7466,0 14.3342,-62.08809 -83.7466,0 z m 195.0806,-158.83 -115.3597,247.38976 42.1718,0 115.3597,-247.38976 -42.1718,0 z m 93.3728,0 -115.3597,247.38976 42.1718,0 115.3597,-247.38976 -42.1718,0 z"/></g></g></svg>