<svg xmlns="http://www.w3.org/2000/svg" xmlns:svg="http://www.w3.org/2000/svg" xmlns:xlink="http://www.w3.org/1999/xlink" id="svg2" width="144" height="144" version="1.0"><defs id="defs4"><linearGradient id="linearGradient3767"><stop id="stop3769" offset="0" stop-color="#ffccc5" stop-opacity="1"/><stop id="stop3771" offset="1" stop-color="#ff6b56" stop-opacity="1"/></linearGradient><linearGradient id="linearGradient3699"><stop id="stop3701" offset="0" stop-color="#000" stop-opacity="1"/><stop id="stop3703" offset="1" stop-color="#000" stop-opacity="0"/></linearGradient><linearGradient id="linearGradient3683"><stop id="stop3685" offset="0" stop-color="#fff" stop-opacity=".887"/><stop id="stop3687" offset="1" stop-color="#fff" stop-opacity="0"/></linearGradient><linearGradient id="linearGradient4069"><stop id="stop4071" offset="0" stop-color="#f4f3fe" stop-opacity="1"/><stop id="stop4249" offset=".731" stop-color="#8e84d6" stop-opacity="1"/><stop id="stop4073" offset="1" stop-color="#2815af" stop-opacity="1"/></linearGradient><linearGradient id="linearGradient3600"><stop id="stop3602" offset="0" stop-color="#fc390e" stop-opacity="1"/><stop id="stop3604" offset="1" stop-color="#fd9a85" stop-opacity="1"/></linearGradient><filter id="filter3692" width="1.5" height="1.5" x="-.25" y="-.25" color-interpolation-filters="sRGB"><feGaussianBlur id="feGaussianBlur3694" in="SourceAlpha" result="blur" stdDeviation="1"/><feColorMatrix id="feColorMatrix3696" result="bluralpha" type="matrix" values="1 0 0 0 0 0 1 0 0 0 0 0 1 0 0 0 0 0 1.000000 0"/><feOffset id="feOffset3698" dx="0" dy="0" in="bluralpha" result="offsetBlur"/><feMerge id="feMerge3700"><feMergeNode id="feMergeNode3702" in="offsetBlur"/><feMergeNode id="feMergeNode3704" in="SourceGraphic"/></feMerge></filter><linearGradient id="linearGradient3606-7" x1="39" x2="39" y1="22" y2="-30" gradientUnits="userSpaceOnUse" xlink:href="#linearGradient3600-9"/><linearGradient id="linearGradient3600-9"><stop id="stop3602-1" offset="0" stop-color="#fc390e" stop-opacity="1"/><stop id="stop3604-3" offset="1" stop-color="#fed0c6" stop-opacity="1"/></linearGradient><linearGradient id="linearGradient3965" x1="39" x2="39" y1="22" y2="-30" gradientTransform="translate(1.845606,221.31978)" gradientUnits="userSpaceOnUse" xlink:href="#linearGradient3600"/><linearGradient id="linearGradient3965-0" x1="39" x2="39" y1="22" y2="-30" gradientTransform="translate(1.845606,221.31978)" gradientUnits="userSpaceOnUse" xlink:href="#linearGradient3600-95"/><linearGradient id="linearGradient3600-95"><stop id="stop3602-3" offset="0" stop-color="#fc390e" stop-opacity="1"/><stop id="stop3604-8" offset="1" stop-color="#fd9a85" stop-opacity="1"/></linearGradient><radialGradient id="radialGradient3689" cx="38.023" cy="170.497" r="29.594" fx="38.023" fy="170.497" gradientTransform="matrix(-0.54418933,-1.0688069e-8,0,-0.40006699,58.537282,258.88884)" gradientUnits="userSpaceOnUse" xlink:href="#linearGradient3683"/><radialGradient id="radialGradient3705" cx="37.846" cy="248.334" r="29.594" fx="37.846" fy="248.334" gradientTransform="matrix(1,0,0,0.50052795,0,115.93046)" gradientUnits="userSpaceOnUse" xlink:href="#linearGradient3699"/><filter id="filter3751" width="1.5" height="1.5" x="-.25" y="-.25" color-interpolation-filters="sRGB"><feGaussianBlur id="feGaussianBlur3753" in="SourceAlpha" result="blur" stdDeviation="1"/><feColorMatrix id="feColorMatrix3755" result="bluralpha" type="matrix" values="1 0 0 0 0 0 1 0 0 0 0 0 1 0 0 0 0 0 0.700000 0"/><feOffset id="feOffset3757" dx="0" dy="0" in="bluralpha" result="offsetBlur"/><feMerge id="feMerge3759" result="fbSourceGraphic"><feMergeNode id="feMergeNode3761" in="offsetBlur"/><feMergeNode id="feMergeNode3763" in="SourceGraphic"/></feMerge><feColorMatrix id="feColorMatrix3892" in="fbSourceGraphic" result="fbSourceGraphicAlpha" values="0 0 0 -1 0 0 0 0 -1 0 0 0 0 -1 0 0 0 0 1 0"/><feGaussianBlur id="feGaussianBlur3894" in="fbSourceGraphicAlpha" result="blur" stdDeviation="1"/><feColorMatrix id="feColorMatrix3896" result="bluralpha" type="matrix" values="1 0 0 0 0 0 1 0 0 0 0 0 1 0 0 0 0 0 0.700000 0"/><feOffset id="feOffset3898" dx="0" dy="0" in="bluralpha" result="offsetBlur"/><feMerge id="feMerge3900"><feMergeNode id="feMergeNode3902" in="offsetBlur"/><feMergeNode id="feMergeNode3904" in="fbSourceGraphic"/></feMerge></filter><radialGradient id="radialGradient3868" cx="36.706" cy="195.124" r="31.534" fx="36.706" fy="195.124" gradientTransform="matrix(-8.8006918e-4,1.5404146,-1.8180408,-0.00103872,391.64719,139.27166)" gradientUnits="userSpaceOnUse" xlink:href="#linearGradient3767"/><radialGradient id="radialGradient3877" cx="36.706" cy="195.124" r="31.534" fx="36.706" fy="195.124" gradientTransform="matrix(-8.8006918e-4,1.5404146,-1.8180408,-0.00103872,389.80158,-42.04812)" gradientUnits="userSpaceOnUse" xlink:href="#linearGradient3767"/><radialGradient id="radialGradient3890" cx="36.706" cy="195.124" r="31.534" fx="36.706" fy="195.124" gradientTransform="matrix(-8.8006918e-4,1.5404146,-1.8180408,-0.00103872,389.80158,-42.04812)" gradientUnits="userSpaceOnUse" xlink:href="#linearGradient3767"/><radialGradient id="radialGradient3908" cx="36.706" cy="195.124" r="31.534" fx="36.706" fy="195.124" gradientTransform="matrix(-0.00149719,2.6245482,-3.0928769,-0.00176976,675.6881,48.253399)" gradientUnits="userSpaceOnUse" xlink:href="#linearGradient3767"/><linearGradient id="linearGradient3732" x1="126.346" x2="21.346" y1="233.82" y2="128.82" gradientTransform="matrix(1.0192308,0,0,1.0192307,-1.4201081,-3.4868979)" gradientUnits="userSpaceOnUse" xlink:href="#linearGradient3600-9"/><filter id="filter3892" width="1.24" height="1.24" x="-.12" y="-.12"><feGaussianBlur id="feGaussianBlur3895" stdDeviation="5.6"/></filter></defs><metadata id="metadata7"/><g id="layer2" display="inline" transform="translate(-1.845606,-109.31978)"><rect id="rect3814" width="112" height="112" x="17.846" y="127.082" fill="#000" fill-opacity="1" fill-rule="nonzero" stroke="none" filter="url(#filter3892)" ry="6.204"/><rect id="rect3707" width="114" height="114" x="16.846" y="124.32" fill="#fff" fill-opacity="1" fill-rule="nonzero" stroke="none" ry="6.314"/><path id="rect3765" fill="url(#radialGradient3908)" fill-opacity="1" fill-rule="nonzero" stroke="none" d="m 24.673285,128.41368 c -2.014943,0 -3.615078,1.60255 -3.615078,3.62056 l 0,98.39406 c 0,2.018 1.600135,3.62056 3.615078,3.62056 l 98.245105,0 c 2.01495,0 3.61509,-1.60256 3.61509,-3.62056 l 0,-98.39406 c 0,-2.01801 -1.60014,-3.62056 -3.61509,-3.62056 l -98.245105,0 z"/><rect id="rect3875" width="106" height="106" x="20.846" y="128.32" fill="none" stroke="url(#linearGradient3732)" stroke-dasharray="none" stroke-miterlimit="4" stroke-opacity="1" stroke-width="1.019" ry="3.655"/><g id="g3026" transform="matrix(0.88915458,0,0,0.88915458,124.99214,-120.76926)"><path id="path2982" fill="#fc390e" fill-opacity="1" fill-rule="evenodd" stroke="#000" stroke-dasharray="none" stroke-linecap="butt" stroke-linejoin="round" stroke-miterlimit="4" stroke-opacity="1" stroke-width="7.022" d="m -28.93301,316.85339 -4.02612,17.43897 23.5223298,0 4.02611,-17.43897 -23.5223198,0 z" display="inline"/><path id="path2980" fill="#fc390e" fill-opacity="1" fill-rule="evenodd" stroke="#000" stroke-dasharray="none" stroke-linecap="butt" stroke-linejoin="round" stroke-miterlimit="4" stroke-opacity="1" stroke-width="7.022" d="m -35.3935,344.83686 -4.02611,17.43897 23.5223,0 4.02611,-17.43897 -23.5223,0 z" display="inline"/><g id="g3020"><path id="path2992" fill="#fc390e" fill-opacity="1" fill-rule="evenodd" stroke="#000" stroke-dasharray="none" stroke-linecap="butt" stroke-linejoin="round" stroke-miterlimit="4" stroke-opacity="1" stroke-width="7.022" d="m -63.769741,316.85339 -11.374515,49.26844 c -0.675931,1.98272 -1.705561,1.87687 -4.00372,1.96699 l -0.270372,11.22043 18.926015,-0.0676 c 3.672549,-0.20278 5.961363,-2.28474 7.470938,-7.4218 l 12.690005,-54.96646 -23.438351,0 z" display="inline"/><path id="path2990" fill="#fc390e" fill-opacity="1" fill-rule="evenodd" stroke="#000" stroke-dasharray="none" stroke-linecap="butt" stroke-linejoin="round" stroke-miterlimit="4" stroke-opacity="1" stroke-width="7.022" d="m -59.930898,300.22553 -2.902539,12.57229 23.438351,0 2.90254,-12.57229 -23.438352,0 z" display="inline"/><path id="path3012" fill="#fc390e" fill-opacity="1" fill-rule="evenodd" stroke="none" d="m -63.769741,316.85339 -11.374518,49.26844 c -0.675928,1.98272 -1.705561,1.87687 -4.00372,1.96699 l -0.270369,11.22043 18.926015,-0.0676 c 3.672549,-0.20278 5.961363,-2.28474 7.470938,-7.4218 l 12.690005,-54.96646 -23.438351,0 z"/><path id="path3010" fill="#fc390e" fill-opacity="1" fill-rule="evenodd" stroke="none" d="m -59.930898,300.22553 -2.902539,12.57229 23.438351,0 2.90254,-12.57229 -23.438352,0 z"/></g><path id="path3002" fill="#fc390e" fill-opacity="1" fill-rule="evenodd" stroke="none" d="m -28.93304,316.85339 -4.02612,17.43897 23.5223298,0 4.02612,-17.43897 -23.5223298,0 z"/><path id="path3000" fill="#fc390e" fill-opacity="1" fill-rule="evenodd" stroke="none" d="m -35.39352,344.83686 -4.02612,17.43897 23.5223,0 4.02612,-17.43897 -23.5223,0 z"/><g id="g3016" transform="translate(22.440722,0)"><path id="path3693-4" fill="#fc390e" fill-opacity="1" fill-rule="evenodd" stroke="#000" stroke-dasharray="none" stroke-linejoin="round" stroke-miterlimit="4.1" stroke-opacity="1" stroke-width="7.022" d="m -117.55764,300.18798 -2.89652,12.57792 23.435479,0 2.905298,-12.57792 -23.444257,0 z m -3.83569,16.63305 -10.68202,45.44903 23.62858,0 10.488915,-45.44903 -23.435475,0 z" display="inline"/><path id="path3687-1" fill="#a4eb10" fill-opacity="1" fill-rule="evenodd" stroke="none" d="m -117.55764,300.18798 -2.89652,12.57792 23.435479,0 2.905298,-12.57792 -23.444257,0 z m -3.83569,16.63305 -10.68202,45.44903 23.62858,0 10.488915,-45.44903 -23.435475,0 z" display="inline"/></g></g></g></svg>