<svg xmlns="http://www.w3.org/2000/svg" xmlns:svg="http://www.w3.org/2000/svg" xmlns:xlink="http://www.w3.org/1999/xlink" id="svg2" width="144" height="144" version="1.0"><defs id="defs4"><linearGradient id="linearGradient3767"><stop id="stop3769" offset="0" stop-color="#ffccc5" stop-opacity="1"/><stop id="stop3771" offset="1" stop-color="#ff6b56" stop-opacity="1"/></linearGradient><linearGradient id="linearGradient3699"><stop id="stop3701" offset="0" stop-color="#000" stop-opacity="1"/><stop id="stop3703" offset="1" stop-color="#000" stop-opacity="0"/></linearGradient><linearGradient id="linearGradient3683"><stop id="stop3685" offset="0" stop-color="#fff" stop-opacity=".887"/><stop id="stop3687" offset="1" stop-color="#fff" stop-opacity="0"/></linearGradient><linearGradient id="linearGradient4069"><stop id="stop4071" offset="0" stop-color="#f4f3fe" stop-opacity="1"/><stop id="stop4249" offset=".731" stop-color="#8e84d6" stop-opacity="1"/><stop id="stop4073" offset="1" stop-color="#2815af" stop-opacity="1"/></linearGradient><linearGradient id="linearGradient3600"><stop id="stop3602" offset="0" stop-color="#fc390e" stop-opacity="1"/><stop id="stop3604" offset="1" stop-color="#fd9a85" stop-opacity="1"/></linearGradient><filter id="filter3692" width="1.5" height="1.5" x="-.25" y="-.25" color-interpolation-filters="sRGB"><feGaussianBlur id="feGaussianBlur3694" in="SourceAlpha" result="blur" stdDeviation="1"/><feColorMatrix id="feColorMatrix3696" result="bluralpha" type="matrix" values="1 0 0 0 0 0 1 0 0 0 0 0 1 0 0 0 0 0 1.000000 0"/><feOffset id="feOffset3698" dx="0" dy="0" in="bluralpha" result="offsetBlur"/><feMerge id="feMerge3700"><feMergeNode id="feMergeNode3702" in="offsetBlur"/><feMergeNode id="feMergeNode3704" in="SourceGraphic"/></feMerge></filter><linearGradient id="linearGradient3606-7" x1="39" x2="39" y1="22" y2="-30" gradientUnits="userSpaceOnUse" xlink:href="#linearGradient3600-9"/><linearGradient id="linearGradient3600-9"><stop id="stop3602-1" offset="0" stop-color="#fc390e" stop-opacity="1"/><stop id="stop3604-3" offset="1" stop-color="#fed0c6" stop-opacity="1"/></linearGradient><linearGradient id="linearGradient3965" x1="39" x2="39" y1="22" y2="-30" gradientTransform="translate(1.845606,221.31978)" gradientUnits="userSpaceOnUse" xlink:href="#linearGradient3600"/><linearGradient id="linearGradient3965-0" x1="39" x2="39" y1="22" y2="-30" gradientTransform="translate(1.845606,221.31978)" gradientUnits="userSpaceOnUse" xlink:href="#linearGradient3600-95"/><linearGradient id="linearGradient3600-95"><stop id="stop3602-3" offset="0" stop-color="#fc390e" stop-opacity="1"/><stop id="stop3604-8" offset="1" stop-color="#fd9a85" stop-opacity="1"/></linearGradient><radialGradient id="radialGradient3689" cx="38.023" cy="170.497" r="29.594" fx="38.023" fy="170.497" gradientTransform="matrix(-0.54418933,-1.0688069e-8,0,-0.40006699,58.537282,258.88884)" gradientUnits="userSpaceOnUse" xlink:href="#linearGradient3683"/><radialGradient id="radialGradient3705" cx="37.846" cy="248.334" r="29.594" fx="37.846" fy="248.334" gradientTransform="matrix(1,0,0,0.50052795,0,115.93046)" gradientUnits="userSpaceOnUse" xlink:href="#linearGradient3699"/><filter id="filter3751" width="1.5" height="1.5" x="-.25" y="-.25" color-interpolation-filters="sRGB"><feGaussianBlur id="feGaussianBlur3753" in="SourceAlpha" result="blur" stdDeviation="1"/><feColorMatrix id="feColorMatrix3755" result="bluralpha" type="matrix" values="1 0 0 0 0 0 1 0 0 0 0 0 1 0 0 0 0 0 0.700000 0"/><feOffset id="feOffset3757" dx="0" dy="0" in="bluralpha" result="offsetBlur"/><feMerge id="feMerge3759" result="fbSourceGraphic"><feMergeNode id="feMergeNode3761" in="offsetBlur"/><feMergeNode id="feMergeNode3763" in="SourceGraphic"/></feMerge><feColorMatrix id="feColorMatrix3892" in="fbSourceGraphic" result="fbSourceGraphicAlpha" values="0 0 0 -1 0 0 0 0 -1 0 0 0 0 -1 0 0 0 0 1 0"/><feGaussianBlur id="feGaussianBlur3894" in="fbSourceGraphicAlpha" result="blur" stdDeviation="1"/><feColorMatrix id="feColorMatrix3896" result="bluralpha" type="matrix" values="1 0 0 0 0 0 1 0 0 0 0 0 1 0 0 0 0 0 0.700000 0"/><feOffset id="feOffset3898" dx="0" dy="0" in="bluralpha" result="offsetBlur"/><feMerge id="feMerge3900"><feMergeNode id="feMergeNode3902" in="offsetBlur"/><feMergeNode id="feMergeNode3904" in="fbSourceGraphic"/></feMerge></filter><radialGradient id="radialGradient3868" cx="36.706" cy="195.124" r="31.534" fx="36.706" fy="195.124" gradientTransform="matrix(-8.8006918e-4,1.5404146,-1.8180408,-0.00103872,391.64719,139.27166)" gradientUnits="userSpaceOnUse" xlink:href="#linearGradient3767"/><radialGradient id="radialGradient3877" cx="36.706" cy="195.124" r="31.534" fx="36.706" fy="195.124" gradientTransform="matrix(-8.8006918e-4,1.5404146,-1.8180408,-0.00103872,389.80158,-42.04812)" gradientUnits="userSpaceOnUse" xlink:href="#linearGradient3767"/><radialGradient id="radialGradient3890" cx="36.706" cy="195.124" r="31.534" fx="36.706" fy="195.124" gradientTransform="matrix(-8.8006918e-4,1.5404146,-1.8180408,-0.00103872,389.80158,-42.04812)" gradientUnits="userSpaceOnUse" xlink:href="#linearGradient3767"/><radialGradient id="radialGradient3908" cx="36.706" cy="195.124" r="31.534" fx="36.706" fy="195.124" gradientTransform="matrix(-0.00149719,2.6245482,-3.0928769,-0.00176976,675.6881,48.253399)" gradientUnits="userSpaceOnUse" xlink:href="#linearGradient3767"/><linearGradient id="linearGradient3732" x1="126.346" x2="21.346" y1="233.82" y2="128.82" gradientTransform="matrix(1.0192308,0,0,1.0192307,-1.4201081,-3.4868979)" gradientUnits="userSpaceOnUse" xlink:href="#linearGradient3600-9"/><filter id="filter3892" width="1.24" height="1.24" x="-.12" y="-.12"><feGaussianBlur id="feGaussianBlur3895" stdDeviation="5.6"/></filter></defs><metadata id="metadata7"/><g id="layer2" display="inline" transform="translate(-1.845606,-109.31978)"><rect id="rect3814" width="112" height="112" x="17.846" y="127.082" fill="#000" fill-opacity="1" fill-rule="nonzero" stroke="none" filter="url(#filter3892)" ry="6.204"/><rect id="rect3707" width="114" height="114" x="16.846" y="124.32" fill="#fff" fill-opacity="1" fill-rule="nonzero" stroke="none" ry="6.314"/><path id="rect3765" fill="url(#radialGradient3908)" fill-opacity="1" fill-rule="nonzero" stroke="none" d="m 24.673285,128.41368 c -2.014943,0 -3.615078,1.60255 -3.615078,3.62056 l 0,98.39406 c 0,2.018 1.600135,3.62056 3.615078,3.62056 l 98.245105,0 c 2.01495,0 3.61509,-1.60256 3.61509,-3.62056 l 0,-98.39406 c 0,-2.01801 -1.60014,-3.62056 -3.61509,-3.62056 l -98.245105,0 z"/><rect id="rect3875" width="106" height="106" x="20.846" y="128.32" fill="none" stroke="url(#linearGradient3732)" stroke-dasharray="none" stroke-miterlimit="4" stroke-opacity="1" stroke-width="1.019" ry="3.655"/><path id="path2991" fill="#fc390e" fill-opacity="1" fill-rule="evenodd" stroke="#000" stroke-dasharray="none" stroke-linecap="butt" stroke-linejoin="round" stroke-miterlimit="4" stroke-opacity="1" stroke-width="6.713" d="m 43.781972,161.80467 -10.874119,47.10098 c -0.646194,1.8955 -1.630524,1.7943 -3.827583,1.88046 l -0.258475,10.72681 18.093406,-0.0647 c 3.510985,-0.19386 5.69911,-2.18423 7.142274,-7.0953 l 12.131734,-52.54833 -22.407237,0 0,3e-5 z" display="inline"/><path id="path2989" fill="#fc390e" fill-opacity="1" fill-rule="evenodd" stroke="#000" stroke-dasharray="none" stroke-linecap="butt" stroke-linejoin="round" stroke-miterlimit="4" stroke-opacity="1" stroke-width="6.713" d="m 47.451935,145.90831 -2.774846,12.01919 22.407236,0 2.774847,-12.01919 -22.407237,0 z" display="inline"/><path id="path2979" fill="#fc390e" fill-opacity="1" fill-rule="evenodd" stroke="none" d="m 43.78198,161.80467 -10.874127,47.10098 c -0.646187,1.8955 -1.630524,1.7943 -3.827583,1.88046 l -0.258475,10.7268 18.093406,-0.0647 c 3.510985,-0.19386 5.69911,-2.18423 7.142274,-7.09529 l 12.131741,-52.54834 -22.407236,0 0,4e-5 z"/><path id="path2977" fill="#fc390e" fill-opacity="1" fill-rule="evenodd" stroke="none" d="m 47.451943,145.90831 -2.774854,12.01919 22.407236,0 2.774847,-12.01919 -22.407229,0 z"/><path id="path2987" fill="#fc390e" fill-opacity="1" fill-rule="evenodd" stroke="#000" stroke-dasharray="none" stroke-linecap="butt" stroke-linejoin="round" stroke-miterlimit="4" stroke-opacity="1" stroke-width="6.713" d="m 75.219163,161.80467 -3.848993,16.67178 22.487516,0 3.848993,-16.67178 -22.487516,0 z" display="inline"/><path id="path2985" fill="#fc390e" fill-opacity="1" fill-rule="evenodd" stroke="#000" stroke-dasharray="none" stroke-linecap="butt" stroke-linejoin="round" stroke-miterlimit="4" stroke-opacity="1" stroke-width="6.713" d="m 69.042889,188.55706 -3.848994,16.67179 22.487494,0 3.848994,-16.67179 -22.487494,0 z" display="inline"/><path id="path3193-3" fill="#000" fill-opacity="1" fill-rule="evenodd" stroke="none" stroke-width="6.713" d="M 119.25 33.25 A 3.3568136 3.3568136 0 0 0 116.53125 35.1875 L 85.5625 101.59375 A 3.3568136 3.3568136 0 0 0 88.59375 106.375 L 99.9375 106.375 A 3.3568136 3.3568136 0 0 0 102.96875 104.4375 L 125 57.1875 L 125 41.34375 L 97.78125 99.65625 L 93.875 99.65625 L 121.71875 39.9375 L 125 39.9375 L 125 33.25 L 119.59375 33.25 A 3.3568136 3.3568136 0 0 0 119.25 33.25 z M 125 70.8125 L 110.625 101.59375 A 3.3568136 3.3568136 0 0 0 113.6875 106.375 L 125 106.375 L 125 95.09375 L 122.875 99.65625 L 118.9375 99.65625 L 125 86.65625 L 125 70.8125 z" color="#000" direction="ltr" display="inline" enable-background="accumulate" font-family="Bitstream Charter" font-size="medium" font-stretch="normal" font-style="normal" font-variant="normal" font-weight="normal" letter-spacing="normal" overflow="visible" text-anchor="start" text-decoration="none" transform="translate(1.845606,109.31978)" visibility="visible" word-spacing="normal" writing-mode="lr-tb" style="text-indent:0;text-align:start;line-height:normal;text-transform:none;block-progression:tb;marker:none;-inkscape-font-specification:Bitstream Charter"/><path id="path2975" fill="#fc390e" fill-opacity="1" fill-rule="evenodd" stroke="none" d="m 75.219163,161.80467 -3.848993,16.67178 22.487516,0 3.848993,-16.67178 -22.487516,0 z"/><path id="path2973" fill="#fc390e" fill-opacity="1" fill-rule="evenodd" stroke="none" d="m 69.042889,188.55706 -3.848994,16.67179 22.487494,0 3.848994,-16.67179 -22.487494,0 z"/><path id="path3316-8" fill="#fc390e" fill-opacity="1" fill-rule="evenodd" stroke="none" d="M 119.59375 36.59375 L 88.59375 103.03125 L 99.9375 103.03125 L 125 49.25 L 125 36.59375 L 119.59375 36.59375 z M 125 78.75 L 113.6875 103.03125 L 125 103.03125 L 125 78.75 z" transform="translate(1.845606,109.31978)"/><g id="g2972" transform="matrix(1.374126,0,0,1.374126,325.59261,-59.202589)"><path id="path3693" fill="#fc390e" fill-opacity="1" fill-rule="evenodd" stroke="#000" stroke-dasharray="none" stroke-linejoin="round" stroke-miterlimit="4.1" stroke-opacity="1" stroke-width="3.244" d="m -203.52681,166.01171 -1.33806,5.81041 10.82611,0 1.34211,-5.81041 -10.83016,0 z m -1.77191,7.68369 -4.9346,20.99535 10.91531,0 4.84539,-20.99535 -10.8261,0 z" display="inline"/><path id="path3687" fill="#a4eb10" fill-opacity="1" fill-rule="evenodd" stroke="none" d="m -203.52681,166.01171 -1.33806,5.81041 10.82611,0 1.34211,-5.81041 -10.83016,0 z m -1.77191,7.68369 -4.9346,20.99535 10.91531,0 4.84539,-20.99535 -10.8261,0 z" display="inline"/></g></g></svg>